<svg xmlns="http://www.w3.org/2000/svg" xmlns:xlink="http://www.w3.org/1999/xlink" width="15.049" height="15.046" viewBox="0 0 15.049 15.046">
  <defs>
    <linearGradient id="linear-gradient" x1="0.5" x2="0.5" y2="1" gradientUnits="objectBoundingBox">
      <stop offset="0" stop-color="#1d55c5"/>
      <stop offset="1" stop-color="#e93354"/>
    </linearGradient>
  </defs>
  <path id="Shape_557" data-name="Shape 557" d="M7.546,9.724c-.089.086-.145.137-.2.191L2.822,14.439a1.826,1.826,0,0,1-1.6.59,1.441,1.441,0,0,1-1.156-1.9A2.083,2.083,0,0,1,.631,12.2Q2.873,9.968,5.112,7.727c.06-.059.129-.109.213-.179-.079-.082-.133-.143-.191-.2Q2.887,5.1.639,2.854A1.971,1.971,0,0,1,.011,1.621,1.448,1.448,0,0,1,1.921.066a2.132,2.132,0,0,1,.94.581Q5.1,2.89,7.338,5.128c.054.055.1.12.161.2.085-.081.145-.136.2-.193L12.227.609a1.826,1.826,0,0,1,1.6-.589,1.443,1.443,0,0,1,1.146,1.921,2.094,2.094,0,0,1-.56.9q-2.241,2.238-4.48,4.479c-.06.059-.13.108-.213.177.08.084.135.144.193.2l4.524,4.525a1.826,1.826,0,0,1,.589,1.6,1.443,1.443,0,0,1-1.919,1.147,2.09,2.09,0,0,1-.9-.559Q9.966,12.176,7.725,9.937C7.666,9.877,7.616,9.808,7.546,9.724Z" transform="translate(15.049 0) rotate(90)" fill="url(#linear-gradient)"/>
</svg>
