<svg xmlns="http://www.w3.org/2000/svg" width="15.159" height="13.597" viewBox="0 0 15.159 13.597">
  <path id="heart" d="M13.036,1.233A3.807,3.807,0,0,0,10.2,0,3.562,3.562,0,0,0,7.979.768a4.552,4.552,0,0,0-.9.939,4.549,4.549,0,0,0-.9-.939A3.561,3.561,0,0,0,3.956,0,3.808,3.808,0,0,0,1.124,1.233,4.426,4.426,0,0,0,0,4.255,5.27,5.27,0,0,0,1.4,7.7,29.945,29.945,0,0,0,4.92,11c.487.415,1.039.886,1.612,1.387a.831.831,0,0,0,1.094,0C8.2,11.89,8.753,11.419,9.24,11a29.928,29.928,0,0,0,3.515-3.3,5.269,5.269,0,0,0,1.4-3.45,4.425,4.425,0,0,0-1.123-3.022Zm0,0" transform="translate(0.5 0.5)" fill="none" stroke="#956ad5" stroke-width="1"/>
</svg>
