<svg id="Group_23" data-name="Group 23" xmlns="http://www.w3.org/2000/svg" xmlns:xlink="http://www.w3.org/1999/xlink" width="13.802" height="17.633" viewBox="0 0 13.802 17.633">
  <defs>
    <linearGradient id="linear-gradient" x1="0.5" x2="0.5" y2="1" gradientUnits="objectBoundingBox">
      <stop offset="0" stop-color="#1d55c5"/>
      <stop offset="1" stop-color="#e93354"/>
    </linearGradient>
  </defs>
  <g id="Group_21" data-name="Group 21">
    <path id="Path_222" data-name="Path 222" d="M86.8,48.7h0a.392.392,0,0,1-.333-.185,34.938,34.938,0,0,0-2.622-3.466c-.624-.76-1.269-1.546-1.838-2.317-.969-1.314-2.082-3.043-2.082-4.765a6.9,6.9,0,0,1,13.8,0c0,1.845-1.182,3.681-2.955,5.871-.311.384-.637.775-.951,1.154a33.921,33.921,0,0,0-2.688,3.523A.392.392,0,0,1,86.8,48.7Zm.025-16.849a6.123,6.123,0,0,0-6.116,6.116c0,1.165.595,2.491,1.929,4.3.557.755,1.2,1.533,1.813,2.285.82,1,1.664,2.026,2.349,3.038.707-1.042,1.575-2.086,2.418-3.1.313-.376.637-.765.945-1.146,1.669-2.06,2.781-3.763,2.781-5.378A6.124,6.124,0,0,0,86.823,31.847Z" transform="translate(-79.923 -31.063)" fill="url(#linear-gradient)"/>
  </g>
  <g id="Group_22" data-name="Group 22" transform="translate(3.258 3.178)">
    <path id="Path_223" data-name="Path 223" d="M166.7,119.619a3.737,3.737,0,1,1,3.642-3.737A3.7,3.7,0,0,1,166.7,119.619Zm0-6.687a2.953,2.953,0,1,0,2.858,2.951A2.91,2.91,0,0,0,166.7,112.932Z" transform="translate(-163.052 -112.148)" fill="url(#linear-gradient)"/>
  </g>
</svg>
