<svg xmlns="http://www.w3.org/2000/svg" xmlns:xlink="http://www.w3.org/1999/xlink" width="14.143" height="14.143" viewBox="0 0 14.143 14.143">
  <defs>
    <style>
      .cls-1 {
        fill: url(#linear-gradient);
      }
    </style>
    <linearGradient id="linear-gradient" x1="0.5" x2="0.5" y2="1" gradientUnits="objectBoundingBox">
      <stop offset="0" stop-color="#1d55c5"/>
      <stop offset="1" stop-color="#e93354"/>
    </linearGradient>
  </defs>
  <path id="Shape_557" data-name="Shape 557" class="cls-1" d="M5.015,6.463c-.059.057-.1.091-.132.127L1.876,9.6a1.214,1.214,0,0,1-1.064.392A.958.958,0,0,1,.043,8.726a1.384,1.384,0,0,1,.376-.615Q1.909,6.625,3.4,5.135c.04-.039.085-.072.141-.119-.052-.055-.089-.095-.127-.133Q1.919,3.39.425,1.9a1.31,1.31,0,0,1-.417-.819A.962.962,0,0,1,1.277.044,1.417,1.417,0,0,1,1.9.43Q3.388,1.92,4.877,3.408c.036.036.065.08.107.132.056-.054.1-.09.135-.128L8.126.4A1.214,1.214,0,0,1,9.19.014.959.959,0,0,1,9.952,1.29a1.392,1.392,0,0,1-.372.6L6.6,4.868c-.04.039-.086.072-.141.118.053.056.09.1.128.134L9.6,8.127a1.213,1.213,0,0,1,.392,1.064.959.959,0,0,1-1.276.763,1.389,1.389,0,0,1-.6-.371Q6.623,8.092,5.134,6.6C5.095,6.564,5.062,6.518,5.015,6.463Z" transform="translate(7.072 0) rotate(45)"/>
</svg>
