<svg xmlns="http://www.w3.org/2000/svg" xmlns:xlink="http://www.w3.org/1999/xlink" width="160" height="155" viewBox="0 0 160 155">
  <defs>
    <linearGradient id="linear-gradient" x1="0.016" y1="0.016" x2="1" y2="1" gradientUnits="objectBoundingBox">
      <stop offset="0" stop-color="#a7e05f"/>
      <stop offset="1" stop-color="#12ab97"/>
    </linearGradient>
    <filter id="Rectangle_14_copy" x="0" y="0" width="160" height="155" filterUnits="userSpaceOnUse">
      <feOffset input="SourceAlpha"/>
      <feGaussianBlur stdDeviation="15" result="blur"/>
      <feFlood flood-color="#a8a8a8" flood-opacity="0.302"/>
      <feComposite operator="in" in2="blur"/>
      <feComposite in="SourceGraphic"/>
    </filter>
    <filter id="Shape_558" x="23" y="20.996" width="114.872" height="108.238" filterUnits="userSpaceOnUse">
      <feOffset input="SourceAlpha"/>
      <feGaussianBlur stdDeviation="15" result="blur-2"/>
      <feFlood flood-color="#a8a8a8" flood-opacity="0.302"/>
      <feComposite operator="in" in2="blur-2"/>
      <feComposite in="SourceGraphic"/>
    </filter>
  </defs>
  <g id="Component_26_1" data-name="Component 26 – 1" transform="translate(45 45)">
    <g transform="matrix(1, 0, 0, 1, -45, -45)" filter="url(#Rectangle_14_copy)">
      <rect id="Rectangle_14_copy-2" data-name="Rectangle 14 copy" width="70" height="65" rx="32.5" transform="translate(45 45)" fill="url(#linear-gradient)"/>
    </g>
    <g transform="matrix(1, 0, 0, 1, -45, -45)" filter="url(#Shape_558)">
      <path id="Shape_558-2" data-name="Shape 558" d="M1255.035,1718.041c.181-.236.256-.36.355-.46q5.78-5.906,11.564-11.808a2.189,2.189,0,0,1,3.016-.305,2.317,2.317,0,0,1,.257,3.439c-.508.549-1.04,1.076-1.564,1.61q-5.77,5.888-11.542,11.774a2.739,2.739,0,0,1-3.653.438,3.019,3.019,0,0,1-.409-.352q-3.185-3.246-6.364-6.5a2.247,2.247,0,0,1-.6-2.3,2.139,2.139,0,0,1,1.753-1.607,2.193,2.193,0,0,1,2.054.7q2.412,2.46,4.819,4.924A3.866,3.866,0,0,1,1255.035,1718.041Z" transform="translate(-1178 -1639)" fill="#fff"/>
    </g>
  </g>
</svg>