<svg xmlns="http://www.w3.org/2000/svg" xmlns:xlink="http://www.w3.org/1999/xlink" width="27" height="26" viewBox="0 0 27 26">
  <defs>
    <filter id="Path_2468" x="0" y="0" width="27" height="26" filterUnits="userSpaceOnUse">
      <feOffset dy="2" input="SourceAlpha"/>
      <feGaussianBlur stdDeviation="2" result="blur"/>
      <feFlood flood-opacity="0.161"/>
      <feComposite operator="in" in2="blur"/>
      <feComposite in="SourceGraphic"/>
    </filter>
    <linearGradient id="linear-gradient" x1="0.5" x2="0.5" y2="1" gradientUnits="objectBoundingBox">
      <stop offset="0" stop-color="#1d55c5"/>
      <stop offset="1" stop-color="#e93354"/>
    </linearGradient>
  </defs>
  <g id="Component_11_1" data-name="Component 11 – 1" transform="translate(6 4)">
    <g transform="matrix(1, 0, 0, 1, -6, -4)" filter="url(#Path_2468)">
      <g id="Path_2468-2" data-name="Path 2468" transform="translate(6 4)" fill="#fff">
        <path d="M 14 13.5 L 1 13.5 C 0.7243000268936157 13.5 0.5 13.27569961547852 0.5 13 L 0.5 1 C 0.5 0.7243000268936157 0.7243000268936157 0.5 1 0.5 L 14 0.5 C 14.27569961547852 0.5 14.5 0.7243000268936157 14.5 1 L 14.5 13 C 14.5 13.27569961547852 14.27569961547852 13.5 14 13.5 Z" stroke="none"/>
        <path d="M 1 1 L 1 13 L 14 13 L 14 1 L 1 1 M 1 0 L 14 0 C 14.55228042602539 0 15 0.4477100372314453 15 1 L 15 13 C 15 13.55228042602539 14.55228042602539 14 14 14 L 1 14 C 0.4477100372314453 14 0 13.55228042602539 0 13 L 0 1 C 0 0.4477100372314453 0.4477100372314453 0 1 0 Z" stroke="none" fill="#7e7e7e"/>
      </g>
    </g>
    <path id="Shape_558" data-name="Shape 558" d="M1250.894,1712.064c.1-.128.139-.195.192-.25q3.131-3.2,6.264-6.4a1.186,1.186,0,0,1,1.634-.165,1.255,1.255,0,0,1,.139,1.863c-.275.3-.563.583-.847.872q-3.125,3.189-6.252,6.378a1.484,1.484,0,0,1-1.979.237,1.652,1.652,0,0,1-.222-.191q-1.725-1.758-3.447-3.52a1.216,1.216,0,0,1-.322-1.245,1.158,1.158,0,0,1,.949-.87,1.188,1.188,0,0,1,1.113.378q1.306,1.333,2.61,2.667A2.116,2.116,0,0,1,1250.894,1712.064Z" transform="translate(-1243.472 -1703)" fill="url(#linear-gradient)"/>
  </g>
</svg>
