<svg xmlns="http://www.w3.org/2000/svg" xmlns:xlink="http://www.w3.org/1999/xlink" width="27" height="26" viewBox="0 0 27 26">
  <defs>
    <filter id="Rectangle_14" x="0" y="0" width="27" height="26" filterUnits="userSpaceOnUse">
      <feOffset dy="2" input="SourceAlpha"/>
      <feGaussianBlur stdDeviation="2" result="blur"/>
      <feFlood flood-opacity="0.161"/>
      <feComposite operator="in" in2="blur"/>
      <feComposite in="SourceGraphic"/>
    </filter>
    <linearGradient id="linear-gradient" x1="0.5" x2="0.5" y2="1" gradientUnits="objectBoundingBox">
      <stop offset="0" stop-color="#1d55c5"/>
      <stop offset="1" stop-color="#e93354"/>
    </linearGradient>
  </defs>
  <g id="Component_11_1" data-name="Component 11 – 1" transform="translate(6 4)">
    <g transform="matrix(1, 0, 0, 1, -6, -4)" filter="url(#Rectangle_14)">
      <g id="Rectangle_14-2" data-name="Rectangle 14" transform="translate(6 4)" fill="#fff" stroke="#7e7e7e" stroke-width="1">
        <rect width="15" height="14" rx="1" stroke="none"/>
        <rect x="0.5" y="0.5" width="14" height="13" rx="0.5" fill="none"/>
      </g>
    </g>
    <path id="Shape_558" data-name="Shape 558" d="M1250.894,1712.064c.1-.128.139-.195.192-.25q3.131-3.2,6.264-6.4a1.186,1.186,0,0,1,1.634-.165,1.255,1.255,0,0,1,.139,1.863c-.275.3-.563.583-.847.872q-3.125,3.189-6.252,6.378a1.484,1.484,0,0,1-1.979.237,1.652,1.652,0,0,1-.222-.191q-1.725-1.758-3.447-3.52a1.216,1.216,0,0,1-.322-1.245,1.158,1.158,0,0,1,.949-.87,1.188,1.188,0,0,1,1.113.378q1.306,1.333,2.61,2.667A2.116,2.116,0,0,1,1250.894,1712.064Z" transform="translate(-1245.472 -1703)" fill="url(#linear-gradient)"/>
  </g>
</svg>
