<svg xmlns="http://www.w3.org/2000/svg" xmlns:xlink="http://www.w3.org/1999/xlink" width="61" height="51" viewBox="0 0 61 51">
  <defs>
    <style>
      .cls-1 {
        fill: #fff;
        stroke: #7e7e7e;
      }

      .cls-2 {
        fill: url(#linear-gradient);
      }

      .cls-3 {
        stroke: none;
      }

      .cls-4 {
        fill: none;
      }

      .cls-5 {
        filter: url(#Rectangle_15);
      }
    </style>
    <filter id="Rectangle_15" x="0" y="0" width="61" height="51" filterUnits="userSpaceOnUse">
      <feOffset dy="2" input="SourceAlpha"/>
      <feGaussianBlur stdDeviation="2" result="blur"/>
      <feFlood flood-opacity="0.161"/>
      <feComposite operator="in" in2="blur"/>
      <feComposite in="SourceGraphic"/>
    </filter>
    <linearGradient id="linear-gradient" x1="0.5" x2="0.5" y2="1" gradientUnits="objectBoundingBox">
      <stop offset="0" stop-color="#1d55c5"/>
      <stop offset="1" stop-color="#e93354"/>
    </linearGradient>
  </defs>
  <g id="Component_10_1" data-name="Component 10 – 1" transform="translate(6 4)">
    <g class="cls-5" transform="matrix(1, 0, 0, 1, -6, -4)">
      <g id="Rectangle_15-2" data-name="Rectangle 15" class="cls-1" transform="translate(6 4)">
        <rect class="cls-3" width="49" height="39" rx="1"/>
        <rect class="cls-4" x="0.5" y="0.5" width="48" height="38" rx="0.5"/>
      </g>
    </g>
    <path id="Shape_558" data-name="Shape 558" class="cls-2" d="M1263.368,1729.94c.347-.452.493-.688.681-.881q11.11-11.295,22.227-22.581a4.222,4.222,0,0,1,5.8-.584,4.417,4.417,0,0,1,.494,6.577c-.977,1.051-2,2.057-3.007,3.079q-11.09,11.26-22.184,22.517a5.284,5.284,0,0,1-7.021.837,5.82,5.82,0,0,1-.787-.673q-6.121-6.208-12.231-12.428a4.279,4.279,0,0,1-1.144-4.4,4.1,4.1,0,0,1,3.369-3.074,4.228,4.228,0,0,1,3.948,1.336q4.636,4.705,9.263,9.416A7.444,7.444,0,0,1,1263.368,1729.94Z" transform="translate(-1245.472 -1703)"/>
  </g>
</svg>
